<?xml version="1.0" standalone="no"?>
<!DOCTYPE svg PUBLIC "-//W3C//DTD SVG 20010904//EN"
 "http://www.w3.org/TR/2001/REC-SVG-20010904/DTD/svg10.dtd">
<svg version="1.0" xmlns="http://www.w3.org/2000/svg"
 width="500.000000pt" height="500.000000pt" viewBox="0 0 500.000000 500.000000"
 preserveAspectRatio="xMidYMid meet">

<g transform="translate(0.000000,500.000000) scale(0.100000,-0.100000)"
fill="#000000" stroke="none">
<path d="M4107 2860 c-119 -30 -187 -115 -187 -235 0 -102 48 -177 140 -218
53 -24 156 -28 214 -8 51 18 115 76 137 126 24 53 24 147 0 200 -20 45 -79
101 -127 121 -44 18 -131 25 -177 14z m156 -139 c29 -29 32 -37 32 -96 0 -59
-3 -67 -31 -96 -59 -58 -157 -48 -197 21 -22 36 -22 114 -1 149 26 45 62 62
117 58 38 -3 56 -11 80 -36z"/>
<path d="M1260 2625 l0 -235 190 0 190 0 0 50 0 50 -125 0 -125 0 0 45 0 45
105 0 105 0 0 50 0 50 -105 0 -105 0 0 40 0 40 120 0 120 0 0 50 0 50 -185 0
-185 0 0 -235z"/>
<path d="M1724 2843 c4 -10 48 -116 99 -236 l92 -217 65 2 64 3 97 225 c54
124 98 228 98 233 1 4 -27 7 -61 7 l-63 0 -61 -146 c-33 -80 -64 -146 -69
-147 -5 -1 -36 64 -69 145 l-61 148 -69 0 c-61 0 -67 -2 -62 -17z"/>
<path d="M2340 2625 l0 -235 190 0 190 0 0 50 0 50 -125 0 -125 0 0 45 0 45
105 0 105 0 0 50 0 50 -105 0 -105 0 0 40 0 40 120 0 120 0 0 50 0 50 -185 0
-185 0 0 -235z"/>
<path d="M2850 2625 l0 -235 65 0 64 0 3 125 3 125 103 -125 103 -125 54 0 55
0 0 235 0 235 -65 0 -64 0 -3 -124 -3 -125 -103 125 -103 124 -55 0 -54 0 0
-235z"/>
<path d="M3410 2810 l0 -50 70 0 70 0 0 -185 0 -185 65 0 65 0 2 183 3 182 73
3 72 3 0 49 0 50 -210 0 -210 0 0 -50z"/>
<path d="M1220 2170 l0 -60 740 0 740 0 0 60 0 60 -740 0 -740 0 0 -60z"/>
<path d="M2800 2180 l0 -50 38 2 c36 1 36 1 5 5 -43 6 -47 40 -5 46 l27 4 -27
2 c-17 0 -28 7 -28 15 0 8 12 17 28 19 25 4 25 4 -5 6 l-33 1 0 -50z"/>
<path d="M2936 2193 c9 -21 18 -44 21 -50 9 -22 17 -15 36 30 24 59 21 72 -4
17 l-21 -45 -19 43 c-10 23 -21 42 -24 42 -3 0 2 -17 11 -37z"/>
<path d="M3080 2180 l0 -50 38 2 c36 1 36 1 5 5 -43 6 -47 40 -5 46 l27 4 -27
2 c-17 0 -28 7 -28 15 0 8 12 17 28 19 25 4 25 4 -5 6 l-33 1 0 -50z"/>
<path d="M3212 2178 c1 -44 2 -46 5 -15 2 20 7 37 11 37 4 0 18 -16 32 -35 14
-19 28 -35 33 -35 4 0 7 23 7 50 0 28 -4 50 -10 50 -5 0 -10 -16 -10 -37 l0
-36 -27 36 c-16 20 -31 36 -35 37 -5 0 -7 -24 -6 -52z"/>
<path d="M3367 2223 c18 -4 23 -12 26 -51 l3 -47 2 47 c2 35 6 48 20 51 9 3
-3 5 -28 4 -25 0 -35 -2 -23 -4z"/>
<path d="M3573 2180 c0 -30 2 -43 4 -27 4 22 9 27 34 27 24 0 29 -4 29 -25 0
-14 5 -25 10 -25 6 0 10 23 10 50 0 28 -4 50 -10 50 -5 0 -10 -9 -10 -20 0
-31 -57 -28 -63 3 -2 12 -4 -3 -4 -33z"/>
<path d="M3734 2191 c2 -84 70 -84 72 0 l2 44 -7 -45 c-5 -40 -9 -45 -31 -45
-22 0 -26 5 -31 45 l-7 45 2 -44z"/>
<path d="M3880 2180 l0 -51 38 3 c37 3 37 3 37 48 0 45 0 45 -37 48 l-38 3 0
-51z m68 28 c-7 -20 -58 -23 -58 -4 0 11 10 16 31 16 20 0 29 -4 27 -12z m0
-50 c3 -14 -3 -18 -27 -18 -25 0 -31 4 -31 21 0 16 5 20 27 17 17 -2 29 -10
31 -20z"/>
</g>
</svg>
