<?xml version="1.0" encoding="UTF-8"?>
<!DOCTYPE svg PUBLIC "-//W3C//DTD SVG 1.1//EN" "http://www.w3.org/Graphics/SVG/1.1/DTD/svg11.dtd">
<svg xmlns="http://www.w3.org/2000/svg" version="1.1" width="1000px" height="500px" style="shape-rendering:geometricPrecision; text-rendering:geometricPrecision; image-rendering:optimizeQuality; fill-rule:evenodd; clip-rule:evenodd" xmlns:xlink="http://www.w3.org/1999/xlink">
<g><path style="opacity:0.473" fill="#f49baf" d="M 907.5,156.5 C 900.978,156.177 894.645,156.51 888.5,157.5C 885.833,157.5 883.167,157.5 880.5,157.5C 885.933,156.069 891.599,155.402 897.5,155.5C 901.018,155.502 904.351,155.835 907.5,156.5 Z"/></g>
<g><path style="opacity:1" fill="#d1465e" d="M 888.5,157.5 C 894.645,156.51 900.978,156.177 907.5,156.5C 916.076,156.644 924.076,158.644 931.5,162.5C 917.434,159.03 903.101,157.363 888.5,157.5 Z"/></g>
<g><path style="opacity:0.741" fill="#d1677f" d="M 37.5,159.5 C 73.6628,158.502 109.996,158.168 146.5,158.5C 146.5,168.833 146.5,179.167 146.5,189.5C 123.167,189.5 99.8333,189.5 76.5,189.5C 76.5,189.167 76.5,188.833 76.5,188.5C 99.5,188.5 122.5,188.5 145.5,188.5C 145.5,178.833 145.5,169.167 145.5,159.5C 109.833,159.5 74.1667,159.5 38.5,159.5C 38.1667,159.5 37.8333,159.5 37.5,159.5 Z"/></g>
<g><path style="opacity:0.737" fill="#cf6c83" d="M 289.5,159.5 C 302.66,158.34 315.994,158.173 329.5,159C 328.771,161.058 327.771,162.891 326.5,164.5C 326.5,162.833 326.5,161.167 326.5,159.5C 314.167,159.5 301.833,159.5 289.5,159.5 Z"/></g>
<g><path style="opacity:0.91" fill="#e5849a" d="M 879.5,157.5 C 877.485,158.924 875.152,159.59 872.5,159.5C 874.515,158.076 876.848,157.41 879.5,157.5 Z"/></g>
<g><path style="opacity:1" fill="#e11e48" d="M 879.5,157.5 C 879.833,157.5 880.167,157.5 880.5,157.5C 883.167,157.5 885.833,157.5 888.5,157.5C 903.101,157.363 917.434,159.03 931.5,162.5C 933.772,164.24 936.105,166.073 938.5,168C 939.577,168.47 940.577,168.303 941.5,167.5C 941.833,167.5 942.167,167.5 942.5,167.5C 942.682,170.703 944.348,172.536 947.5,173C 951.679,177.013 956.012,180.846 960.5,184.5C 963.952,188.299 966.618,192.632 968.5,197.5C 968.337,199.857 968.503,202.19 969,204.5C 970.747,207.21 971.747,210.21 972,213.5C 972.667,224.167 972.667,234.833 972,245.5C 970.978,249.407 969.478,253.074 967.5,256.5C 966.352,258.35 965.019,259.017 963.5,258.5C 964.246,259.736 964.579,261.07 964.5,262.5C 963.5,262.5 962.5,262.5 961.5,262.5C 961.296,265.518 960.963,268.518 960.5,271.5C 953.803,271.653 950.803,274.987 951.5,281.5C 947.357,281.263 944.69,281.93 943.5,283.5C 943.5,284.5 943.5,285.5 943.5,286.5C 940.454,286.183 938.787,287.516 938.5,290.5C 933.134,291.468 927.968,293.135 923,295.5C 921.97,295.836 921.47,296.503 921.5,297.5C 921.167,297.5 920.833,297.5 920.5,297.5C 918.712,297.029 916.878,296.696 915,296.5C 903.255,298.349 891.421,299.015 879.5,298.5C 879.167,298.5 878.833,298.5 878.5,298.5C 875.092,297.154 871.759,295.32 868.5,293C 866.866,292.506 865.199,292.34 863.5,292.5C 863.5,291.5 863.5,290.5 863.5,289.5C 859.616,289.576 855.95,288.91 852.5,287.5C 849.109,286.471 846.443,284.471 844.5,281.5C 844.027,280.094 843.027,279.427 841.5,279.5C 841.512,276.858 840.179,275.525 837.5,275.5C 836.833,274.5 836.167,273.5 835.5,272.5C 835.508,268.173 833.508,265.173 829.5,263.5C 827.351,255.635 825.351,247.635 823.5,239.5C 823.167,235.833 822.833,232.167 822.5,228.5C 823.515,217.636 825.181,206.969 827.5,196.5C 834.112,182.888 844.112,172.554 857.5,165.5C 862.704,164.56 867.37,162.56 871.5,159.5C 871.833,159.5 872.167,159.5 872.5,159.5C 875.152,159.59 877.485,158.924 879.5,157.5 Z M 889.5,189.5 C 901.688,187.682 912.688,190.349 922.5,197.5C 924.177,199.54 925.844,201.54 927.5,203.5C 929.533,207.565 931.533,211.565 933.5,215.5C 936.725,229.687 934.225,242.687 926,254.5C 917.232,263.815 906.399,268.149 893.5,267.5C 891.039,266.469 888.373,265.802 885.5,265.5C 878.956,262.729 873.29,258.729 868.5,253.5C 867.89,251.566 866.89,249.899 865.5,248.5C 863.766,244.298 862.433,239.965 861.5,235.5C 860.353,229.847 860.353,224.18 861.5,218.5C 865.493,203.509 874.826,193.843 889.5,189.5 Z"/></g>
<g><path style="opacity:1" fill="#d23f5a" d="M 214.5,159.5 C 217.069,164.985 219.403,170.651 221.5,176.5C 217.378,172.089 214.711,166.923 213.5,161C 200.504,160.5 187.504,160.333 174.5,160.5C 187.087,159.501 200.42,159.168 214.5,159.5 Z"/></g>
<g><path style="opacity:1" fill="#d3425c" d="M 289.5,159.5 C 301.833,159.5 314.167,159.5 326.5,159.5C 326.5,161.167 326.5,162.833 326.5,164.5C 324.204,171.073 321.538,177.406 318.5,183.5C 318.192,181.076 318.526,178.743 319.5,176.5C 321.547,171.006 323.547,165.673 325.5,160.5C 313.814,160.168 302.148,160.501 290.5,161.5C 288.983,165.228 287.317,168.895 285.5,172.5C 284.817,172.863 284.15,173.196 283.5,173.5C 284.988,168.533 286.988,163.866 289.5,159.5 Z"/></g>
<g><path style="opacity:1" fill="#ca294d" d="M 671.5,159.5 C 712.833,159.5 754.167,159.5 795.5,159.5C 795.5,169.5 795.5,179.5 795.5,189.5C 781.5,189.5 767.5,189.5 753.5,189.5C 766.99,188.504 780.656,188.171 794.5,188.5C 794.5,179.167 794.5,169.833 794.5,160.5C 753.833,160.5 713.167,160.5 672.5,160.5C 672.5,169.833 672.5,179.167 672.5,188.5C 686.677,188.171 700.677,188.504 714.5,189.5C 700.167,189.5 685.833,189.5 671.5,189.5C 671.5,179.5 671.5,169.5 671.5,159.5 Z"/></g>
<g><path style="opacity:1" fill="#d4234a" d="M 38.5,159.5 C 74.1667,159.5 109.833,159.5 145.5,159.5C 145.5,169.167 145.5,178.833 145.5,188.5C 122.5,188.5 99.5,188.5 76.5,188.5C 98.9939,187.503 121.661,187.169 144.5,187.5C 144.5,178.5 144.5,169.5 144.5,160.5C 109.5,160.5 74.5,160.5 39.5,160.5C 39.832,202.67 39.4987,244.67 38.5,286.5C 38.5,244.167 38.5,201.833 38.5,159.5 Z"/></g>
<g><path style="opacity:1" fill="#e11d47" d="M 76.5,188.5 C 76.5,188.833 76.5,189.167 76.5,189.5C 75.1724,197.568 75.1724,205.735 76.5,214C 96.4972,214.5 116.497,214.667 136.5,214.5C 136.5,223.167 136.5,231.833 136.5,240.5C 116.326,240.17 96.3264,240.503 76.5,241.5C 76.5,241.833 76.5,242.167 76.5,242.5C 76.5,250.5 76.5,258.5 76.5,266.5C 76.5,266.833 76.5,267.167 76.5,267.5C 99.9941,268.498 123.661,268.831 147.5,268.5C 147.5,277.833 147.5,287.167 147.5,296.5C 111.167,296.5 74.8333,296.5 38.5,296.5C 38.5,293.167 38.5,289.833 38.5,286.5C 39.4987,244.67 39.832,202.67 39.5,160.5C 74.5,160.5 109.5,160.5 144.5,160.5C 144.5,169.5 144.5,178.5 144.5,187.5C 121.661,187.169 98.9939,187.503 76.5,188.5 Z"/></g>
<g><path style="opacity:1" fill="#e11e48" d="M 174.5,160.5 C 187.504,160.333 200.504,160.5 213.5,161C 214.711,166.923 217.378,172.089 221.5,176.5C 221.963,179.482 222.296,182.482 222.5,185.5C 223.5,185.5 224.5,185.5 225.5,185.5C 225.5,185.833 225.5,186.167 225.5,186.5C 225.729,190.418 226.729,194.084 228.5,197.5C 226.642,200.201 225.975,203.034 226.5,206C 228.298,207.505 230.132,207.672 232,206.5C 233.273,208.714 234.273,211.047 235,213.5C 235.671,214.252 236.504,214.586 237.5,214.5C 237.5,214.833 237.5,215.167 237.5,215.5C 237.198,219.38 238.531,222.38 241.5,224.5C 244.789,231.752 248.122,239.085 251.5,246.5C 254.437,240.959 257.104,235.292 259.5,229.5C 260.5,229.5 261.5,229.5 262.5,229.5C 262.704,226.482 263.037,223.482 263.5,220.5C 264.15,220.196 264.817,219.863 265.5,219.5C 268.462,214.143 270.962,208.477 273,202.5C 274.147,203.458 275.147,203.125 276,201.5C 276.596,195.354 277.763,189.354 279.5,183.5C 279.5,183.167 279.5,182.833 279.5,182.5C 280.496,182.586 281.329,182.252 282,181.5C 282.822,178.883 283.322,176.216 283.5,173.5C 284.15,173.196 284.817,172.863 285.5,172.5C 287.317,168.895 288.983,165.228 290.5,161.5C 302.148,160.501 313.814,160.168 325.5,160.5C 323.547,165.673 321.547,171.006 319.5,176.5C 318.526,178.743 318.192,181.076 318.5,183.5C 316.926,183.937 315.759,184.937 315,186.5C 313.464,192.59 310.964,198.257 307.5,203.5C 306.52,206.086 306.187,208.753 306.5,211.5C 305.417,211.539 304.417,211.873 303.5,212.5C 300.337,220.828 297.17,229.162 294,237.5C 289.982,242.711 287.815,248.711 287.5,255.5C 286.504,255.414 285.671,255.748 285,256.5C 281.793,260.998 280.293,265.998 280.5,271.5C 278.744,272.552 278.077,274.219 278.5,276.5C 278.065,279.157 277.065,281.491 275.5,283.5C 274.5,283.5 273.5,283.5 272.5,283.5C 272.037,286.482 271.704,289.482 271.5,292.5C 271.5,292.833 271.5,293.167 271.5,293.5C 269.952,293.821 269.285,294.821 269.5,296.5C 256.5,296.5 243.5,296.5 230.5,296.5C 229.978,293.432 229.145,290.432 228,287.5C 227.617,288.056 227.117,288.389 226.5,288.5C 226.5,288.167 226.5,287.833 226.5,287.5C 226.252,284.42 225.586,281.42 224.5,278.5C 221.757,273.688 219.59,268.688 218,263.5C 217.329,262.748 216.496,262.414 215.5,262.5C 214.596,261.791 214.263,260.791 214.5,259.5C 213.778,255.494 212.945,251.494 212,247.5C 211.667,247.833 211.333,248.167 211,248.5C 210,245.833 209,243.167 208,240.5C 207.329,239.748 206.496,239.414 205.5,239.5C 205.5,239.167 205.5,238.833 205.5,238.5C 205.969,235.607 204.969,233.607 202.5,232.5C 202.5,232.167 202.5,231.833 202.5,231.5C 202.821,228.423 201.821,226.09 199.5,224.5C 198.217,220.256 197.217,215.922 196.5,211.5C 195.5,211.5 194.5,211.5 193.5,211.5C 193.5,211.167 193.5,210.833 193.5,210.5C 191.789,204.499 189.956,198.499 188,192.5C 187.329,191.748 186.496,191.414 185.5,191.5C 182.416,180.912 178.75,170.579 174.5,160.5 Z"/></g>
<g><path style="opacity:1" fill="#e11d47" d="M 395.5,189.5 C 395.5,197.833 395.5,206.167 395.5,214.5C 415.833,214.5 436.167,214.5 456.5,214.5C 456.5,223.167 456.5,231.833 456.5,240.5C 435.993,240.17 415.66,240.503 395.5,241.5C 395.5,250.167 395.5,258.833 395.5,267.5C 418.994,268.498 442.661,268.831 466.5,268.5C 466.5,277.833 466.5,287.167 466.5,296.5C 430.5,296.5 394.5,296.5 358.5,296.5C 358.5,251.167 358.5,205.833 358.5,160.5C 393.833,160.5 429.167,160.5 464.5,160.5C 464.5,169.5 464.5,178.5 464.5,187.5C 441.142,186.844 418.142,187.51 395.5,189.5 Z"/></g>
<g><path style="opacity:0.413" fill="#e88da1" d="M 396.5,189.5 C 419.327,188.502 442.327,188.169 465.5,188.5C 465.5,178.833 465.5,169.167 465.5,159.5C 429.5,159.5 393.5,159.5 357.5,159.5C 357.5,205.5 357.5,251.5 357.5,297.5C 356.501,251.336 356.168,205.003 356.5,158.5C 393.167,158.5 429.833,158.5 466.5,158.5C 466.5,168.833 466.5,179.167 466.5,189.5C 443.167,189.5 419.833,189.5 396.5,189.5 Z"/></g>
<g><path style="opacity:1" fill="#e11d48" d="M 550.5,171.5 C 551.5,171.833 552.167,172.5 552.5,173.5C 553.547,178.05 556.214,181.383 560.5,183.5C 561.5,183.833 562.167,184.5 562.5,185.5C 561.923,188.55 563.09,190.55 566,191.5C 566.219,192.938 566.719,194.271 567.5,195.5C 569.87,197.217 572.203,198.883 574.5,200.5C 574.061,205.175 576.061,208.175 580.5,209.5C 581.609,211.385 582.443,213.385 583,215.5C 585.375,216.129 587.541,217.129 589.5,218.5C 590.08,220.749 591.413,222.415 593.5,223.5C 596.219,225.219 598.219,227.553 599.5,230.5C 600.988,233.186 601.655,232.853 601.5,229.5C 602.498,206.673 602.831,183.673 602.5,160.5C 614.5,160.5 626.5,160.5 638.5,160.5C 638.5,205.833 638.5,251.167 638.5,296.5C 628.145,296.832 617.812,296.499 607.5,295.5C 606.423,294.295 605.09,293.628 603.5,293.5C 602.089,289.909 600.422,286.409 598.5,283C 599.923,281.588 599.756,280.421 598,279.5C 595.88,280.605 593.713,280.605 591.5,279.5C 591.5,279.167 591.5,278.833 591.5,278.5C 590.334,274.976 588.667,271.643 586.5,268.5C 584.925,267.544 583.258,266.877 581.5,266.5C 581.579,265.07 581.246,263.736 580.5,262.5C 578.457,260.792 576.79,258.792 575.5,256.5C 574.423,255.295 573.09,254.628 571.5,254.5C 566.108,249.44 561.441,243.774 557.5,237.5C 557.579,236.07 557.246,234.736 556.5,233.5C 553.965,230.833 551.632,228.166 549.5,225.5C 549.001,222.611 547.501,221.944 545,223.5C 544.5,247.831 544.333,272.164 544.5,296.5C 532.5,296.5 520.5,296.5 508.5,296.5C 508.5,251.167 508.5,205.833 508.5,160.5C 518.855,160.168 529.188,160.501 539.5,161.5C 542.549,165.522 546.215,168.856 550.5,171.5 Z"/></g>
<g><path style="opacity:0.331" fill="#f7b0be" d="M 601.5,158.5 C 601.5,182.167 601.5,205.833 601.5,229.5C 601.655,232.853 600.988,233.186 599.5,230.5C 600.167,206.5 600.833,182.5 601.5,158.5 Z"/></g>
<g><path style="opacity:0.968" fill="#d66073" d="M 601.5,158.5 C 614.5,158.5 627.5,158.5 640.5,158.5C 640.5,204.833 640.5,251.167 640.5,297.5C 629.162,297.667 617.828,297.5 606.5,297C 605.29,295.961 604.29,294.794 603.5,293.5C 605.09,293.628 606.423,294.295 607.5,295.5C 617.812,296.499 628.145,296.832 638.5,296.5C 638.5,251.167 638.5,205.833 638.5,160.5C 626.5,160.5 614.5,160.5 602.5,160.5C 602.831,183.673 602.498,206.673 601.5,229.5C 601.5,205.833 601.5,182.167 601.5,158.5 Z"/></g>
<g><path style="opacity:1" fill="#e11d47" d="M 753.5,189.5 C 752.502,224.996 752.168,260.663 752.5,296.5C 740.167,296.5 727.833,296.5 715.5,296.5C 715.832,260.663 715.498,224.996 714.5,189.5C 700.677,188.504 686.677,188.171 672.5,188.5C 672.5,179.167 672.5,169.833 672.5,160.5C 713.167,160.5 753.833,160.5 794.5,160.5C 794.5,169.833 794.5,179.167 794.5,188.5C 780.656,188.171 766.99,188.504 753.5,189.5 Z"/></g>
<g><path style="opacity:1" fill="#d96379" d="M 871.5,159.5 C 867.37,162.56 862.704,164.56 857.5,165.5C 861.679,162.545 866.346,160.545 871.5,159.5 Z"/></g>
<g><path style="opacity:1" fill="#da5f72" d="M 931.5,162.5 C 935.42,163.127 938.753,164.793 941.5,167.5C 940.577,168.303 939.577,168.47 938.5,168C 936.105,166.073 933.772,164.24 931.5,162.5 Z"/></g>
<g><path style="opacity:1" fill="#d56479" d="M 214.5,159.5 C 200.42,159.168 187.087,159.501 174.5,160.5C 178.75,170.579 182.416,180.912 185.5,191.5C 180.04,180.904 175.373,169.904 171.5,158.5C 186.01,158.171 200.343,158.504 214.5,159.5 Z"/></g>
<g><path style="opacity:1" fill="#da667a" d="M 942.5,167.5 C 949.808,171.809 955.808,177.475 960.5,184.5C 956.012,180.846 951.679,177.013 947.5,173C 944.348,172.536 942.682,170.703 942.5,167.5 Z"/></g>
<g><path style="opacity:1" fill="#d86b7c" d="M 552.5,173.5 C 555.54,176.539 558.206,179.873 560.5,183.5C 556.214,181.383 553.547,178.05 552.5,173.5 Z"/></g>
<g><path style="opacity:1" fill="#d65b70" d="M 283.5,173.5 C 283.322,176.216 282.822,178.883 282,181.5C 281.329,182.252 280.496,182.586 279.5,182.5C 280.463,179.256 281.796,176.256 283.5,173.5 Z"/></g>
<g><path style="opacity:1" fill="#d7576a" d="M 221.5,176.5 C 223.07,179.314 224.403,182.314 225.5,185.5C 224.5,185.5 223.5,185.5 222.5,185.5C 222.296,182.482 221.963,179.482 221.5,176.5 Z"/></g>
<g><path style="opacity:1" fill="#dc6377" d="M 318.5,183.5 C 315.012,193.134 311.012,202.467 306.5,211.5C 306.187,208.753 306.52,206.086 307.5,203.5C 310.964,198.257 313.464,192.59 315,186.5C 315.759,184.937 316.926,183.937 318.5,183.5 Z"/></g>
<g><path style="opacity:0.388" fill="#e790a2" d="M 671.5,159.5 C 712.997,158.501 754.663,158.168 796.5,158.5C 796.5,169.167 796.5,179.833 796.5,190.5C 782.167,190.5 767.833,190.5 753.5,190.5C 753.5,190.167 753.5,189.833 753.5,189.5C 767.5,189.5 781.5,189.5 795.5,189.5C 795.5,179.5 795.5,169.5 795.5,159.5C 754.167,159.5 712.833,159.5 671.5,159.5 Z"/></g>
<g><path style="opacity:0.348" fill="#fca6bb" d="M 671.5,189.5 C 685.833,189.5 700.167,189.5 714.5,189.5C 714.5,225.5 714.5,261.5 714.5,297.5C 713.502,262.004 713.168,226.337 713.5,190.5C 699.323,190.829 685.323,190.496 671.5,189.5 Z"/></g>
<g><path style="opacity:1" fill="#c43253" d="M 714.5,189.5 C 715.498,224.996 715.832,260.663 715.5,296.5C 727.833,296.5 740.167,296.5 752.5,296.5C 752.168,260.663 752.502,224.996 753.5,189.5C 753.5,189.833 753.5,190.167 753.5,190.5C 753.5,226.167 753.5,261.833 753.5,297.5C 740.5,297.5 727.5,297.5 714.5,297.5C 714.5,261.5 714.5,225.5 714.5,189.5 Z"/></g>
<g><path style="opacity:1" fill="#e36b7f" d="M 889.5,189.5 C 898.746,188.341 907.913,188.341 917,189.5C 918.664,192.322 920.497,194.989 922.5,197.5C 912.688,190.349 901.688,187.682 889.5,189.5 Z"/></g>
<g><path style="opacity:0.899" fill="#cd4765" d="M 550.5,171.5 C 546.215,168.856 542.549,165.522 539.5,161.5C 529.188,160.501 518.855,160.168 508.5,160.5C 508.5,205.833 508.5,251.167 508.5,296.5C 508.5,296.833 508.5,297.167 508.5,297.5C 507.501,251.336 507.168,205.003 507.5,158.5C 518.505,158.333 529.505,158.5 540.5,159C 544.211,162.954 547.544,167.121 550.5,171.5 Z"/></g>
<g><path style="opacity:1" fill="#d9576c" d="M 562.5,185.5 C 567.219,189.944 571.219,194.944 574.5,200.5C 572.203,198.883 569.87,197.217 567.5,195.5C 566.719,194.271 566.219,192.938 566,191.5C 563.09,190.55 561.923,188.55 562.5,185.5 Z"/></g>
<g><path style="opacity:1" fill="#da3e58" d="M 225.5,186.5 C 230.012,195.533 234.012,204.866 237.5,214.5C 236.504,214.586 235.671,214.252 235,213.5C 234.273,211.047 233.273,208.714 232,206.5C 230.132,207.672 228.298,207.505 226.5,206C 225.975,203.034 226.642,200.201 228.5,197.5C 226.729,194.084 225.729,190.418 225.5,186.5 Z"/></g>
<g><path style="opacity:1" fill="#dc6d7e" d="M 185.5,191.5 C 186.496,191.414 187.329,191.748 188,192.5C 189.956,198.499 191.789,204.499 193.5,210.5C 190.039,204.57 187.373,198.236 185.5,191.5 Z"/></g>
<g><path style="opacity:1" fill="#df556a" d="M 574.5,200.5 C 580.247,205.91 585.247,211.91 589.5,218.5C 587.541,217.129 585.375,216.129 583,215.5C 582.443,213.385 581.609,211.385 580.5,209.5C 576.061,208.175 574.061,205.175 574.5,200.5 Z"/></g>
<g><path style="opacity:1" fill="#e07585" d="M 927.5,203.5 C 928.5,203.5 929.5,203.5 930.5,203.5C 931.647,206.41 932.647,209.41 933.5,212.5C 933.5,213.5 933.5,214.5 933.5,215.5C 931.533,211.565 929.533,207.565 927.5,203.5 Z"/></g>
<g><path style="opacity:1" fill="#d84e65" d="M 279.5,183.5 C 277.763,189.354 276.596,195.354 276,201.5C 275.147,203.125 274.147,203.458 273,202.5C 270.962,208.477 268.462,214.143 265.5,219.5C 264.817,219.863 264.15,220.196 263.5,220.5C 268.073,207.76 273.407,195.427 279.5,183.5 Z"/></g>
<g><path style="opacity:0.97" fill="#b23451" d="M 77.5,212.5 C 97.8613,211.845 117.861,212.512 137.5,214.5C 137.167,214.5 136.833,214.5 136.5,214.5C 116.833,213.833 97.1667,213.167 77.5,212.5 Z"/></g>
<g><path style="opacity:1" fill="#c92b4e" d="M 76.5,189.5 C 76.5,196.833 76.5,204.167 76.5,211.5C 76.5,212.167 76.8333,212.5 77.5,212.5C 97.1667,213.167 116.833,213.833 136.5,214.5C 116.497,214.667 96.4972,214.5 76.5,214C 75.1724,205.735 75.1724,197.568 76.5,189.5 Z"/></g>
<g><path style="opacity:0.99" fill="#d54e67" d="M 827.5,196.5 C 825.181,206.969 823.515,217.636 822.5,228.5C 822.833,232.167 823.167,235.833 823.5,239.5C 825.351,247.635 827.351,255.635 829.5,263.5C 820.583,247.247 818.083,229.914 822,211.5C 823.171,206.143 825.004,201.143 827.5,196.5 Z"/></g>
<g><path style="opacity:1" fill="#e17485" d="M 193.5,211.5 C 194.5,211.5 195.5,211.5 196.5,211.5C 197.217,215.922 198.217,220.256 199.5,224.5C 197.13,220.414 195.13,216.081 193.5,211.5 Z"/></g>
<g><path style="opacity:0.929" fill="#e3859a" d="M 589.5,218.5 C 591.587,219.585 592.92,221.251 593.5,223.5C 591.413,222.415 590.08,220.749 589.5,218.5 Z"/></g>
<g><path style="opacity:1" fill="#d3556b" d="M 237.5,215.5 C 239.592,218.088 240.925,221.088 241.5,224.5C 238.531,222.38 237.198,219.38 237.5,215.5 Z"/></g>
<g><path style="opacity:1" fill="#d9425e" d="M 889.5,189.5 C 874.826,193.843 865.493,203.509 861.5,218.5C 860.009,221.186 859.343,224.186 859.5,227.5C 859.287,230.527 859.953,233.193 861.5,235.5C 862.433,239.965 863.766,244.298 865.5,248.5C 864.504,248.586 863.671,248.252 863,247.5C 856.645,233.483 857.145,219.816 864.5,206.5C 863.572,205.232 863.405,203.899 864,202.5C 864.667,201.167 865.333,201.167 866,202.5C 867.095,197.903 869.928,195.237 874.5,194.5C 874.422,191.513 875.589,190.847 878,192.5C 881.474,190.173 885.307,189.173 889.5,189.5 Z"/></g>
<g><path style="opacity:1" fill="#de7787" d="M 199.5,224.5 C 201.821,226.09 202.821,228.423 202.5,231.5C 200.707,229.574 199.707,227.241 199.5,224.5 Z"/></g>
<g><path style="opacity:0.961" fill="#d1677f" d="M 861.5,218.5 C 860.353,224.18 860.353,229.847 861.5,235.5C 859.953,233.193 859.287,230.527 859.5,227.5C 859.343,224.186 860.009,221.186 861.5,218.5 Z"/></g>
<g><path style="opacity:1" fill="#d8556a" d="M 263.5,220.5 C 263.037,223.482 262.704,226.482 262.5,229.5C 261.5,229.5 260.5,229.5 259.5,229.5C 260.597,226.314 261.93,223.314 263.5,220.5 Z"/></g>
<g><path style="opacity:1" fill="#db5971" d="M 547.5,225.5 C 548.167,225.5 548.833,225.5 549.5,225.5C 551.632,228.166 553.965,230.833 556.5,233.5C 557.246,234.736 557.579,236.07 557.5,237.5C 553.82,233.817 550.486,229.817 547.5,225.5 Z"/></g>
<g><path style="opacity:1" fill="#d95d73" d="M 306.5,211.5 C 300.678,226.468 294.345,241.134 287.5,255.5C 287.815,248.711 289.982,242.711 294,237.5C 297.17,229.162 300.337,220.828 303.5,212.5C 304.417,211.873 305.417,211.539 306.5,211.5 Z"/></g>
<g><path style="opacity:0.949" fill="#d67585" d="M 202.5,232.5 C 204.969,233.607 205.969,235.607 205.5,238.5C 203.992,236.819 202.992,234.819 202.5,232.5 Z"/></g>
<g><path style="opacity:1" fill="#c9284d" d="M 549.5,225.5 C 548.833,225.5 548.167,225.5 547.5,225.5C 547.44,224.957 547.107,224.624 546.5,224.5C 545.5,248.824 545.167,273.158 545.5,297.5C 533.167,297.5 520.833,297.5 508.5,297.5C 508.5,297.167 508.5,296.833 508.5,296.5C 520.5,296.5 532.5,296.5 544.5,296.5C 544.333,272.164 544.5,247.831 545,223.5C 547.501,221.944 549.001,222.611 549.5,225.5 Z"/></g>
<g><path style="opacity:1" fill="#c6294a" d="M 136.5,214.5 C 136.833,214.5 137.167,214.5 137.5,214.5C 137.5,223.5 137.5,232.5 137.5,241.5C 117.167,241.5 96.8333,241.5 76.5,241.5C 96.3264,240.503 116.326,240.17 136.5,240.5C 136.5,231.833 136.5,223.167 136.5,214.5 Z"/></g>
<g><path style="opacity:1" fill="#d55f6f" d="M 395.5,189.5 C 395.833,189.5 396.167,189.5 396.5,189.5C 396.5,196.833 396.5,204.167 396.5,211.5C 417.007,211.17 437.34,211.503 457.5,212.5C 457.5,222.167 457.5,231.833 457.5,241.5C 436.833,241.5 416.167,241.5 395.5,241.5C 415.66,240.503 435.993,240.17 456.5,240.5C 456.5,231.833 456.5,223.167 456.5,214.5C 436.167,214.5 415.833,214.5 395.5,214.5C 395.5,206.167 395.5,197.833 395.5,189.5 Z"/></g>
<g><path style="opacity:0.565" fill="#df8295" d="M 547.5,225.5 C 546.833,249.5 546.167,273.5 545.5,297.5C 545.167,273.158 545.5,248.824 546.5,224.5C 547.107,224.624 547.44,224.957 547.5,225.5 Z"/></g>
<g><path style="opacity:0.319" fill="#f8c1ca" d="M 76.5,211.5 C 97.1667,211.5 117.833,211.5 138.5,211.5C 138.5,221.833 138.5,232.167 138.5,242.5C 117.833,242.5 97.1667,242.5 76.5,242.5C 76.5,242.167 76.5,241.833 76.5,241.5C 96.8333,241.5 117.167,241.5 137.5,241.5C 137.5,232.5 137.5,223.5 137.5,214.5C 117.861,212.512 97.8613,211.845 77.5,212.5C 76.8333,212.5 76.5,212.167 76.5,211.5 Z"/></g>
<g><path style="opacity:1" fill="#db5d74" d="M 205.5,239.5 C 206.496,239.414 207.329,239.748 208,240.5C 209,243.167 210,245.833 211,248.5C 211.333,248.167 211.667,247.833 212,247.5C 212.945,251.494 213.778,255.494 214.5,259.5C 210.989,253.139 207.989,246.472 205.5,239.5 Z"/></g>
<g><path style="opacity:1" fill="#d95168" d="M 933.5,212.5 C 934.927,214.148 935.76,216.148 936,218.5C 936.5,226.159 936.666,233.826 936.5,241.5C 935.5,241.5 934.5,241.5 933.5,241.5C 933.475,244.96 932.808,248.294 931.5,251.5C 927.971,254.775 924.638,258.275 921.5,262C 913.777,267.597 905.111,269.764 895.5,268.5C 891.167,268.167 886.833,267.833 882.5,267.5C 881.197,264.621 879.197,263.955 876.5,265.5C 875.476,264.147 874.143,263.48 872.5,263.5C 872.5,262.167 872.5,260.833 872.5,259.5C 869.221,258.969 867.887,256.969 868.5,253.5C 873.29,258.729 878.956,262.729 885.5,265.5C 887.78,267.223 890.447,267.889 893.5,267.5C 906.399,268.149 917.232,263.815 926,254.5C 934.225,242.687 936.725,229.687 933.5,215.5C 933.5,214.5 933.5,213.5 933.5,212.5 Z"/></g>
<g><path style="opacity:1" fill="#e27787" d="M 865.5,248.5 C 866.89,249.899 867.89,251.566 868.5,253.5C 866.241,252.656 865.241,250.989 865.5,248.5 Z"/></g>
<g><path style="opacity:1" fill="#da5b71" d="M 571.5,254.5 C 573.09,254.628 574.423,255.295 575.5,256.5C 576.79,258.792 578.457,260.792 580.5,262.5C 581.246,263.736 581.579,265.07 581.5,266.5C 577.82,262.817 574.486,258.817 571.5,254.5 Z"/></g>
<g><path style="opacity:1" fill="#de576d" d="M 968.5,197.5 C 978.682,220.938 977.516,243.938 965,266.5C 963.951,268.618 962.451,270.284 960.5,271.5C 960.963,268.518 961.296,265.518 961.5,262.5C 962.5,262.5 963.5,262.5 964.5,262.5C 964.579,261.07 964.246,259.736 963.5,258.5C 965.019,259.017 966.352,258.35 967.5,256.5C 969.478,253.074 970.978,249.407 972,245.5C 972.667,234.833 972.667,224.167 972,213.5C 971.747,210.21 970.747,207.21 969,204.5C 968.503,202.19 968.337,199.857 968.5,197.5 Z"/></g>
<g><path style="opacity:1" fill="#da4f66" d="M 287.5,255.5 C 285.678,261.136 283.345,266.469 280.5,271.5C 280.293,265.998 281.793,260.998 285,256.5C 285.671,255.748 286.504,255.414 287.5,255.5 Z"/></g>
<g><path style="opacity:0.334" fill="#f8b4c2" d="M 457.5,212.5 C 458.494,222.319 458.827,232.319 458.5,242.5C 437.833,242.5 417.167,242.5 396.5,242.5C 396.5,250.5 396.5,258.5 396.5,266.5C 420.672,266.169 444.672,266.502 468.5,267.5C 444.167,267.5 419.833,267.5 395.5,267.5C 395.5,258.833 395.5,250.167 395.5,241.5C 416.167,241.5 436.833,241.5 457.5,241.5C 457.5,231.833 457.5,222.167 457.5,212.5 Z"/></g>
<g><path style="opacity:1" fill="#dd6075" d="M 829.5,263.5 C 833.508,265.173 835.508,268.173 835.5,272.5C 832.759,270.025 830.759,267.025 829.5,263.5 Z"/></g>
<g><path style="opacity:0.31" fill="#f3a5ba" d="M 885.5,265.5 C 888.373,265.802 891.039,266.469 893.5,267.5C 890.447,267.889 887.78,267.223 885.5,265.5 Z"/></g>
<g><path style="opacity:1" fill="#da6174" d="M 215.5,262.5 C 216.496,262.414 217.329,262.748 218,263.5C 219.59,268.688 221.757,273.688 224.5,278.5C 225.586,281.42 226.252,284.42 226.5,287.5C 222.268,279.493 218.602,271.159 215.5,262.5 Z"/></g>
<g><path style="opacity:1" fill="#d84863" d="M 581.5,266.5 C 583.258,266.877 584.925,267.544 586.5,268.5C 588.667,271.643 590.334,274.976 591.5,278.5C 587.82,274.817 584.486,270.817 581.5,266.5 Z"/></g>
<g><path style="opacity:0.996" fill="#dc7588" d="M 280.5,271.5 C 280.598,273.553 279.931,275.22 278.5,276.5C 278.077,274.219 278.744,272.552 280.5,271.5 Z"/></g>
<g><path style="opacity:0.502" fill="#f79aae" d="M 76.5,267.5 C 76.5,267.167 76.5,266.833 76.5,266.5C 100.833,266.5 125.167,266.5 149.5,266.5C 149.828,277.014 149.494,287.347 148.5,297.5C 148.5,287.5 148.5,277.5 148.5,267.5C 124.5,267.5 100.5,267.5 76.5,267.5 Z"/></g>
<g><path style="opacity:1" fill="#dd4c63" d="M 960.5,271.5 C 958.234,275.436 955.234,278.769 951.5,281.5C 950.803,274.987 953.803,271.653 960.5,271.5 Z"/></g>
<g><path style="opacity:1" fill="#dc7e92" d="M 837.5,275.5 C 840.179,275.525 841.512,276.858 841.5,279.5C 839.833,278.5 838.5,277.167 837.5,275.5 Z"/></g>
<g><path style="opacity:1" fill="#db5469" d="M 591.5,279.5 C 593.713,280.605 595.88,280.605 598,279.5C 599.756,280.421 599.923,281.588 598.5,283C 600.422,286.409 602.089,289.909 603.5,293.5C 599.155,289.153 595.155,284.486 591.5,279.5 Z"/></g>
<g><path style="opacity:0.675" fill="#efabbc" d="M 841.5,279.5 C 843.027,279.427 844.027,280.094 844.5,281.5C 842.973,281.573 841.973,280.906 841.5,279.5 Z"/></g>
<g><path style="opacity:1" fill="#e06376" d="M 951.5,281.5 C 947.999,285.662 943.665,288.662 938.5,290.5C 938.787,287.516 940.454,286.183 943.5,286.5C 943.5,285.5 943.5,284.5 943.5,283.5C 944.69,281.93 947.357,281.263 951.5,281.5 Z"/></g>
<g><path style="opacity:1" fill="#de6379" d="M 275.5,283.5 C 274.925,286.912 273.592,289.912 271.5,292.5C 271.704,289.482 272.037,286.482 272.5,283.5C 273.5,283.5 274.5,283.5 275.5,283.5 Z"/></g>
<g><path style="opacity:1" fill="#d84b64" d="M 852.5,287.5 C 855.95,288.91 859.616,289.576 863.5,289.5C 863.5,290.5 863.5,291.5 863.5,292.5C 865.199,292.34 866.866,292.506 868.5,293C 871.759,295.32 875.092,297.154 878.5,298.5C 868.806,296.979 860.14,293.312 852.5,287.5 Z"/></g>
<g><path style="opacity:1" fill="#d96475" d="M 938.5,290.5 C 933.301,293.793 927.635,296.127 921.5,297.5C 921.47,296.503 921.97,295.836 923,295.5C 927.968,293.135 933.134,291.468 938.5,290.5 Z"/></g>
<g><path style="opacity:0.99" fill="#c63254" d="M 37.5,159.5 C 37.8333,159.5 38.1667,159.5 38.5,159.5C 38.5,201.833 38.5,244.167 38.5,286.5C 38.5,289.833 38.5,293.167 38.5,296.5C 74.8333,296.5 111.167,296.5 147.5,296.5C 147.5,287.167 147.5,277.833 147.5,268.5C 123.661,268.831 99.9941,268.498 76.5,267.5C 100.5,267.5 124.5,267.5 148.5,267.5C 148.5,277.5 148.5,287.5 148.5,297.5C 111.5,297.5 74.5,297.5 37.5,297.5C 37.5,251.5 37.5,205.5 37.5,159.5 Z"/></g>
<g><path style="opacity:0.981" fill="#c73b58" d="M 271.5,293.5 C 271.461,294.583 271.127,295.583 270.5,296.5C 256.85,297.499 243.183,297.833 229.5,297.5C 228.787,294.406 227.787,291.406 226.5,288.5C 227.117,288.389 227.617,288.056 228,287.5C 229.145,290.432 229.978,293.432 230.5,296.5C 243.5,296.5 256.5,296.5 269.5,296.5C 269.285,294.821 269.952,293.821 271.5,293.5 Z"/></g>
<g><path style="opacity:0.989" fill="#c52b4e" d="M 396.5,189.5 C 396.167,189.5 395.833,189.5 395.5,189.5C 418.142,187.51 441.142,186.844 464.5,187.5C 464.5,178.5 464.5,169.5 464.5,160.5C 429.167,160.5 393.833,160.5 358.5,160.5C 358.5,205.833 358.5,251.167 358.5,296.5C 394.5,296.5 430.5,296.5 466.5,296.5C 466.5,287.167 466.5,277.833 466.5,268.5C 442.661,268.831 418.994,268.498 395.5,267.5C 419.833,267.5 444.167,267.5 468.5,267.5C 468.5,277.5 468.5,287.5 468.5,297.5C 431.5,297.5 394.5,297.5 357.5,297.5C 357.5,251.5 357.5,205.5 357.5,159.5C 393.5,159.5 429.5,159.5 465.5,159.5C 465.5,169.167 465.5,178.833 465.5,188.5C 442.327,188.169 419.327,188.502 396.5,189.5 Z"/></g>
<g><path style="opacity:1" fill="#d6546a" d="M 920.5,297.5 C 913.328,299.9 905.828,300.9 898,300.5C 891.594,300.674 885.427,300.007 879.5,298.5C 891.421,299.015 903.255,298.349 915,296.5C 916.878,296.696 918.712,297.029 920.5,297.5 Z"/></g>
<g><path style="opacity:0.502" fill="#e690a2" d="M 23.5,346.5 C 170.167,346.5 316.833,346.5 463.5,346.5C 463.5,358.5 463.5,370.5 463.5,382.5C 316.833,382.5 170.167,382.5 23.5,382.5C 23.5,370.5 23.5,358.5 23.5,346.5 Z"/></g>
<g><path style="opacity:0.76" fill="#575757" d="M 490.5,349.5 C 497.648,348.508 504.981,348.175 512.5,348.5C 512.737,349.791 512.404,350.791 511.5,351.5C 504.913,349.539 497.913,348.872 490.5,349.5 Z"/></g>
<g><path style="opacity:0.757" fill="#868686" d="M 575.5,352.5 C 581.014,351.833 586.681,351.167 592.5,350.5C 585.866,349.503 579.2,349.17 572.5,349.5C 572.5,359.5 572.5,369.5 572.5,379.5C 571.506,369.347 571.172,359.014 571.5,348.5C 578.833,348.5 586.167,348.5 593.5,348.5C 593.5,349.833 593.5,351.167 593.5,352.5C 587.5,352.5 581.5,352.5 575.5,352.5 Z"/></g>
<g><path style="opacity:0.749" fill="#727272" d="M 668.5,352.5 C 671.689,351.834 675.023,351.167 678.5,350.5C 674.5,350.167 670.5,349.833 666.5,349.5C 662.107,349.509 658.107,350.176 654.5,351.5C 653.596,350.791 653.263,349.791 653.5,348.5C 662.167,348.5 670.833,348.5 679.5,348.5C 679.5,349.833 679.5,351.167 679.5,352.5C 675.833,352.5 672.167,352.5 668.5,352.5 Z"/></g>
<g><path style="opacity:1" fill="#070707" d="M 490.5,349.5 C 497.913,348.872 504.913,349.539 511.5,351.5C 505.5,351.5 499.5,351.5 493.5,351.5C 493.185,355.371 493.518,359.038 494.5,362.5C 499.5,362.5 504.5,362.5 509.5,362.5C 504.604,364.446 499.271,365.113 493.5,364.5C 493.183,368.702 493.517,372.702 494.5,376.5C 500.5,376.5 506.5,376.5 512.5,376.5C 512.5,377.5 512.5,378.5 512.5,379.5C 505.167,379.5 497.833,379.5 490.5,379.5C 490.5,369.5 490.5,359.5 490.5,349.5 Z"/></g>
<g><path style="opacity:0.999" fill="#414141" d="M 525.5,348.5 C 527.288,348.215 528.955,348.548 530.5,349.5C 533.725,357.617 537.225,365.617 541,373.5C 544.853,365.619 548.519,357.619 552,349.5C 553.494,348.253 554.994,348.253 556.5,349.5C 552.296,359.407 547.962,369.241 543.5,379C 541.741,379.798 540.074,379.631 538.5,378.5C 533.772,368.641 529.438,358.641 525.5,348.5 Z"/></g>
<g><path style="opacity:1" fill="#0d0d0d" d="M 575.5,352.5 C 575.5,355.833 575.5,359.167 575.5,362.5C 580.833,362.5 586.167,362.5 591.5,362.5C 591.5,363.5 591.5,364.5 591.5,365.5C 586.167,365.5 580.833,365.5 575.5,365.5C 575.5,369.167 575.5,372.833 575.5,376.5C 581.833,376.5 588.167,376.5 594.5,376.5C 594.5,377.5 594.5,378.5 594.5,379.5C 587.167,379.5 579.833,379.5 572.5,379.5C 572.5,369.5 572.5,359.5 572.5,349.5C 579.2,349.17 585.866,349.503 592.5,350.5C 586.681,351.167 581.014,351.833 575.5,352.5 Z"/></g>
<g><path style="opacity:1" fill="#212121" d="M 633.5,371.5 C 633.783,372.289 634.283,372.956 635,373.5C 635.168,365.479 635.668,357.479 636.5,349.5C 637.499,359.478 637.832,369.478 637.5,379.5C 635.097,379.607 633.264,378.607 632,376.5C 626.951,370.29 622.117,363.957 617.5,357.5C 617.217,356.711 616.717,356.044 616,355.5C 615.5,363.493 615.334,371.493 615.5,379.5C 614.5,379.5 613.5,379.5 612.5,379.5C 612.5,369.167 612.5,358.833 612.5,348.5C 613.978,348.238 615.311,348.571 616.5,349.5C 622.191,356.852 627.857,364.185 633.5,371.5 Z"/></g>
<g><path style="opacity:0.998" fill="#010101" d="M 668.5,352.5 C 668.5,361.5 668.5,370.5 668.5,379.5C 667.5,379.5 666.5,379.5 665.5,379.5C 665.5,370.167 665.5,360.833 665.5,351.5C 661.833,351.5 658.167,351.5 654.5,351.5C 658.107,350.176 662.107,349.509 666.5,349.5C 670.5,349.833 674.5,350.167 678.5,350.5C 675.023,351.167 671.689,351.834 668.5,352.5 Z"/></g>
<g><path style="opacity:1" fill="#191919" d="M 720.5,348.5 C 720.5,353.167 720.5,357.833 720.5,362.5C 726.833,362.5 733.167,362.5 739.5,362.5C 740.166,358.316 740.833,353.982 741.5,349.5C 742.499,359.478 742.832,369.478 742.5,379.5C 741.5,379.5 740.5,379.5 739.5,379.5C 739.5,374.833 739.5,370.167 739.5,365.5C 733.5,365.5 727.5,365.5 721.5,365.5C 721.5,370.167 721.5,374.833 721.5,379.5C 720.167,379.5 718.833,379.5 717.5,379.5C 717.5,369.167 717.5,358.833 717.5,348.5C 718.5,348.5 719.5,348.5 720.5,348.5 Z"/></g>
<g><path style="opacity:0.705" fill="#5c5c5c" d="M 742.5,379.5 C 742.832,369.478 742.499,359.478 741.5,349.5C 740.833,353.982 740.166,358.316 739.5,362.5C 739.5,362.167 739.5,361.833 739.5,361.5C 739.5,357.167 739.5,352.833 739.5,348.5C 740.833,348.5 742.167,348.5 743.5,348.5C 743.828,359.014 743.494,369.347 742.5,379.5 Z"/></g>
<g><path style="opacity:1" fill="#303030" d="M 765.5,374.5 C 764.404,366.477 764.404,358.144 765.5,349.5C 766.167,356.321 766.833,362.988 767.5,369.5C 771.736,377.456 777.236,378.456 784,372.5C 785.401,364.585 785.901,356.585 785.5,348.5C 786.833,348.5 788.167,348.5 789.5,348.5C 789.666,355.841 789.5,363.174 789,370.5C 787.377,376.952 783.21,380.285 776.5,380.5C 774.133,380.158 771.8,379.658 769.5,379C 767.365,378.124 766.031,376.624 765.5,374.5 Z"/></g>
<g><path style="opacity:1" fill="#282828" d="M 828.5,349.5 C 835.096,352.807 836.096,357.473 831.5,363.5C 832.76,364.382 833.926,365.382 835,366.5C 835.667,369.5 835.667,372.5 835,375.5C 833.786,377.049 832.286,378.215 830.5,379C 823.842,379.5 817.175,379.666 810.5,379.5C 810.5,369.5 810.5,359.5 810.5,349.5C 816.5,349.5 822.5,349.5 828.5,349.5 Z M 813.5,351.5 C 818.248,351.275 822.915,351.775 827.5,353C 831.263,357.201 830.263,360.201 824.5,362C 820.848,362.499 817.182,362.665 813.5,362.5C 813.5,358.833 813.5,355.167 813.5,351.5 Z M 813.5,365.5 C 818.93,365.161 824.264,365.661 829.5,367C 832.709,371.443 831.709,374.61 826.5,376.5C 822.167,376.5 817.833,376.5 813.5,376.5C 813.5,372.833 813.5,369.167 813.5,365.5 Z"/></g>
<g><path style="opacity:0.7" fill="#5f5f5f" d="M 637.5,379.5 C 637.832,369.478 637.499,359.478 636.5,349.5C 635.668,357.479 635.168,365.479 635,373.5C 634.283,372.956 633.783,372.289 633.5,371.5C 634.492,364.018 634.825,356.352 634.5,348.5C 635.833,348.5 637.167,348.5 638.5,348.5C 638.828,359.014 638.494,369.347 637.5,379.5 Z"/></g>
<g><path style="opacity:0.826" fill="#595959" d="M 767.5,369.5 C 766.833,362.988 766.167,356.321 765.5,349.5C 764.404,358.144 764.404,366.477 765.5,374.5C 764.778,374.082 764.278,373.416 764,372.5C 763.5,364.507 763.334,356.507 763.5,348.5C 764.833,348.5 766.167,348.5 767.5,348.5C 767.5,355.5 767.5,362.5 767.5,369.5 Z"/></g>
<g><path style="opacity:0.093" fill="#dcdcdc" d="M 511.5,351.5 C 506.025,352.489 500.358,352.822 494.5,352.5C 494.5,355.833 494.5,359.167 494.5,362.5C 493.518,359.038 493.185,355.371 493.5,351.5C 499.5,351.5 505.5,351.5 511.5,351.5 Z"/></g>
<g><path style="opacity:0.797" fill="#474747" d="M 828.5,349.5 C 822.5,349.5 816.5,349.5 810.5,349.5C 810.5,359.5 810.5,369.5 810.5,379.5C 809.506,369.347 809.172,359.014 809.5,348.5C 816.022,348.177 822.355,348.51 828.5,349.5 Z"/></g>
<g><path style="opacity:0.282" fill="#bbbbbb" d="M 654.5,351.5 C 658.167,351.5 661.833,351.5 665.5,351.5C 665.5,360.833 665.5,370.167 665.5,379.5C 664.507,370.682 664.173,361.682 664.5,352.5C 660.958,352.813 657.625,352.479 654.5,351.5 Z"/></g>
<g><path style="opacity:0.031" fill="#e9e9e9" d="M 720.5,348.5 C 721.485,352.634 721.818,356.968 721.5,361.5C 727.5,361.5 733.5,361.5 739.5,361.5C 739.5,361.833 739.5,362.167 739.5,362.5C 733.167,362.5 726.833,362.5 720.5,362.5C 720.5,357.833 720.5,353.167 720.5,348.5 Z"/></g>
<g><path style="opacity:0.246" fill="#bfbfbf" d="M 617.5,357.5 C 616.833,364.833 616.167,372.167 615.5,379.5C 615.334,371.493 615.5,363.493 616,355.5C 616.717,356.044 617.217,356.711 617.5,357.5 Z"/></g>
<g><path style="opacity:0.808" fill="#666666" d="M 509.5,362.5 C 510.404,363.209 510.737,364.209 510.5,365.5C 505.167,365.5 499.833,365.5 494.5,365.5C 494.5,369.167 494.5,372.833 494.5,376.5C 493.517,372.702 493.183,368.702 493.5,364.5C 499.271,365.113 504.604,364.446 509.5,362.5 Z"/></g>
<g><path style="opacity:0.699" fill="#5c5c5c" d="M 813.5,365.5 C 813.5,369.167 813.5,372.833 813.5,376.5C 817.833,376.5 822.167,376.5 826.5,376.5C 822.03,377.486 817.363,377.819 812.5,377.5C 812.183,373.298 812.517,369.298 813.5,365.5 Z"/></g>
<g><path style="opacity:1" fill="#ca284e" d="M 24.5,347.5 C 170.5,347.5 316.5,347.5 462.5,347.5C 462.5,358.833 462.5,370.167 462.5,381.5C 316.5,381.5 170.5,381.5 24.5,381.5C 24.5,370.167 24.5,358.833 24.5,347.5 Z"/></g>
<g><path style="opacity:1" fill="#e21d47" d="M 26.5,348.5 C 171.5,348.5 316.5,348.5 461.5,348.5C 461.5,359.167 461.5,369.833 461.5,380.5C 316.5,380.667 171.5,380.5 26.5,380C 25.1778,369.5 25.1778,359 26.5,348.5 Z"/></g>
</svg>
